<svg xmlns="http://www.w3.org/2000/svg" preserveAspectRatio="xMidYMid" viewBox="6527 4399 290829 540906"><path d="M285104 430945h-2037v-1140h5486v1140h-2025v5688h-1424v-5688zm10942 297h-32l-2020 5393h-924l-2006-5393h-24v5393h-1343v-6828h1976l1860 4835 1854-4835h1970v6828h-1312l1-5393" fill="#e76f00"/><path d="M102681 291324s-14178 8245 10090 11035c29400 3350 44426 2870 76825-3260 0 0 8518 5340 20414 9960-72630 31126-164376-1805-107329-17745m-8875-40620s-15902 11771 8384 14283c31406 3240 56208 3505 99125-4759 0 0 5937 6018 15271 9310-87815 25677-185624 2024-122780-18834" fill="#5382a1"/><path d="M168625 181799c17896 20604-4701 39146-4701 39146s45439-23458 24571-52833c-19491-27395-34438-41005 46479-87934 1-1-127013 31721-66349 101621" fill="#e76f00"/><path d="M264684 321369s10492 8646-11555 15333c-41930 12700-174490 16535-211320 507-13240-5760 11583-13752 19392-15429C69346 320014 74000 320343 74000 320343c-14722-10370-95157 20363-40857 29166 148085 24015 269945-10814 231533-28140M109500 208617s-67432 16016-23880 21832c18389 2462 55047 1905 89192-956 27906-2354 55928-7358 55928-7358s-9840 4214-16960 9074c-68474 18010-200755 9631-162673-8790 32206-15568 58392-13802 58392-13802m120963 67614c69608-36171 37425-70932 14960-66248-5506 1146-7961 2139-7961 2139s2050-3202 5950-4588c44440-15624 78620 46081-14340 70521 0 0 1079-962 1400-1824" fill="#5382a1"/><path d="M188495 4399s38550 38562-36563 97862c-60233 47567-13735 74689-25 105678-35158-31723-60960-59647-43650-85637 25406-38151 95792-56648 80238-117903" fill="#e76f00"/><path d="M116339 374246c66815 4277 169417-2373 171846-33987 0 0-4670 11984-55219 21503-57027 10730-127364 9479-169081 2600 2-1 8541 7068 52454 9884" fill="#5382a1"/><path d="M105389 495049c-6303 5467-12960 8536-18934 8536-8527 0-13134-5113-13134-13314 0-8870 4937-15350 24739-15350h7328l1 20138m17390 19623v-60750c0-15518-8850-25756-30190-25756-12460 0-23370 3076-32240 6999l2560 10752c6980-2563 16020-4949 24890-4949 12293 0 17581 4949 17581 15181v7678H99250c-29864 0-43336 11593-43336 28993 0 15018 8878 23554 25594 23554 10745 0 18766-4437 26264-10930l1360 9222 13646-2zm58040 0h-21690l-26110-84960h18942l16200 52200 3600 15698c8195-22698 13992-45726 16890-67898h18428c-4938 27975-13822 58683-26264 84959m83214-19625c-6315 5466-12983 8535-18958 8535-8512 0-13131-5113-13131-13314 0-8870 4947-15355 24748-15355h7340v20135m17390 19623v-60750c0-15518-8870-25756-30184-25756-12464 0-23380 3076-32245 6999l2559 10752c6985-2563 16040-4950 24906-4950 12283 0 17579 4950 17579 15182v7678h-6146c-29871 0-43340 11593-43340 28993 0 15018 8870 23554 25586 23554 10752 0 18770-4437 26280-10930l1366 9224 13646-2zM36840 529106c-4957 7239-12965 12966-21732 16206l-8582-10110c6673-3425 12396-8955 15055-14105 2300-4581 3252-10485 3252-24604v-96995H43310v95666c-1 18875-1510 26500-6465 33936" fill="#e76f00"/></svg>
