<svg xmlns="http://www.w3.org/2000/svg" width="2270" height="2500" preserveAspectRatio="xMinYMin meet" viewBox="0 0 256000 282000"><g fill="#8CC84B"><path d="M116504 3580c6962-3985 16030-4003 22986 0 34995 19774 70001 39517 104990 59303 6581 3707 10983 11030 10916 18614v118968c50 7897-4788 15396-11730 19019-34880 19665-69743 39354-104617 59019-7106 4063-16356 3750-23240-646-10460-6062-20936-12094-31390-18150-2140-1274-4550-2288-6059-4360 1334-1798 3720-2022 5657-2807 4365-1388 8374-3616 12384-5778 1014-694 2252-428 3224 193 8942 5127 17805 10403 26777 15481 1914 1105 3852-362 5488-1274 34228-19345 68498-38617 102720-57968 1268-610 1970-1956 1866-3345 24-39245 6-78497 12-117742 145-1576-767-3025-2192-3670-34759-19575-69500-39180-104253-58760a3621 3621 0 00-4094-6C91200 39257 56465 58880 21712 78454c-1420 646-2373 2071-2204 3653 6 39245 0 78497 0 117748a3329 3329 0 00 1890 3303c9274 5260 18560 10481 27840 15722 5228 2814 11647 4486 17407 2330 5083-1823 8646-7010 8549-12407 48-39016-24-78038 36-117048-127-1732 1516-3163 3200-3000 4456-30 8918-60 13374 12 1860-42 3140 1823 2910 3568-18 39263 48 78527-30 117790 12 10464-4287 21850-13966 26970-11924 6177-26662 4867-38442-1056-10198-5090-19930-11097-29947-16550C5364 215886 550 208357 599 200466V81496C530 73757 5107 66300 11893 62647 46768 42967 81636 23270 116504 3580"/><path d="M146928 85990c15210-979 31493-580 45180 6913 10597 5742 16472 17793 16659 29566-296 1584-1956 2459-3472 2350-4413-5-8827 61-13240-29-1872 72-2960-1654-3195-3310-1268-5632-4340-11211-9642-13928-8139-4075-17576-3870-26451-3785-6479 344-13446 905-18935 4715-4214 2886-5494 8712-3990 13404 1418 3369 5307 4456 8489 5458 18330 4794 37754 4317 55734 10626 7444 2572 14726 7572 17274 15366 3333 10446 1872 22932-5560 31318-6027 6900-14805 10657-23560 12697-11647 2597-23734 2663-35562 1510-11122-1268-22696-4190-31282-11768-7342-6375-10928-16308-10572-25895 85-1620 1697-2748 3248-2615 4444-36 8888-48 13332 6 1775-127 3090 1407 3182 3080 820 5367 2837 11000 7517 14182 9032 5827 20365 5428 30707 5590 8568-380 18186-494 25178-6157 3689-3230 4782-8634 3785-13283-1080-3925-5186-5754-8712-6950-18095-5724-37736-3647-55656-10120-7275-2571-14310-7432-17105-14906-3900-10578-2113-23662 6098-31765 8006-8060 19563-11164 30550-12275"/></g></svg>
