<svg xmlns="http://www.w3.org/2000/svg" fill="#54c1de" viewBox="0 0 20000 20000"><path d="m15000 5675-500-157 78-341c378-1835 130-3314-714-3800-809-467-2133 19-3470 1183a10846 10846 0 00-387 355c-84-81-170-160-257-238C8349 1432 6944 907 6100 1400c-809 468-1048 1858-708 3600 34 173 73 344 115 515q-300 84-575 180c-1643 573-2692 1471-2692 2400 0 962 1126 1927 2838 2512 138 47 278 90 420 131q-69 276-122 554c-325 1710-71 3067 736 3533 833 480 2231-14 3593-1200 108-94 216-194 323-300a10821 10821 0 00 420 383c1318 1135 2621 1593 3427 1126 833-481 1100-1939 752-3714-27-136-59-274-93-415 100-29 200-59 288-90C16600 10020 17760 9067 17760 8092c0-936-1083-1840-2760-2417zM10829 3060c1146-1000 2217-1391 2700-1110 520 300 722 1509 400 3094a9619 9619 0 01-70 308 16012 16012 0 00-2075-327 15735 15735 0 00-1311-1638 9189 9189 0 01 356-327zM6823 8886q211 406 440 800 229 394 488 800a14292 14292 0 01-1431-230c137-442 306-902 503-1370zm0-1559c-192-458-358-908-493-1343 443-100 915-180 1407-241q-248 384-476 782a20067 20067 0 00-439 802zm353 780q306-639 660-1252 354-612 753-1200c460-33 933-55 1411-55s954 18 1415 54q395 584 748 1193 353 609 670 1253-312 639-667 1256-352 614-745 1200c-460 33-936 49-1421 49s-953-14-1400-44q-400-586-758-1200c-242-412-463-830-667-1254zm5564 1577q234-407 450-822a13815 13815 0 01 521 1365 13900 13900 0 01-1447 247q246-390 476-790zm444-2357q-216-408-447-807a19800 19800 0 00-472-776c495 63 970 146 1415 248a14110 14110 0 01-496 1335zm-3176-3466a14072 14072 0 01 913 1100q-918-42-1835 0c303-396 614-761 922-1100zM6433 1969c519-300 1667 128 2877 1200l233 215a15975 15975 0 00-1322 1639 16318 16318 0 00-2071 322c-39-158-75-318-107-478-291-1491-98-2615 390-2898zm-756 8125q-194-54-384-120c-756-259-1381-595-1810-961C3100 8683 2900 8356 2900 8090c0-565 846-1290 2251-1776 177-61 355-118 534-168a15976 15976 0 00 756 1960 16326 16326 0 00-764 1988zm3592 3022c-600 527-1200 900-1737 1088-478 169-858 173-1088 41-490-282-693-1373-416-2835 33-173 71-344 114-515a15511 15511 0 00 2091 300 16100 16100 0 00 1332 1646c-97 96-195 188-296 275zm757-749c-314-339-627-713-934-1117 300 12 600 17 908 17s629-7 937-21a13875 13875 0 01-911 1121zm4026 922c-92 500-279 831-508 964-489 283-1535-85-2663-1056q-194-166-390-356a15600 15600 0 00 1300-1652 15491 15491 0 00 2100-324c31 128 59 253 83 376 159 785 181 1494 78 2048zm563-3311-261 82a15516 15516 0 00-785-1966 15586 15586 0 00 755-1938q238 69 461 146C16222 6800 17100 7527 17100 8090c0 600-949 1380-2485 1888zM10000 9477a1386 1386 0 10-1385-1386A1386 1386 0 00 10000 9477zm-8016 9302-416-600a700 700 0 01-79 0h-461v594H650V16740h839c536 0 868 274 868 725a653 653 0 01-434 644l469 669h-408zm-513-1718h-443v812h443c332 0 500-151 500-408s-171-404-500-404zM4200 18118H2980c44 227 233 373 500 373a560 560 0 00 422-169l198 224a788 788 0 01-626 254c-521 0-859-334-859-800a774 774 0 01 800-795c454 0 786 317 786 800a1053 1053 0 01-1 113zm-1223-242h883a423 423 0 00-440-376 431 431 0 00-443 376zm2837-9v912H5470v-189c-87 133-256 209-490 209-355 0-579-200-579-466s174-463 646-463h400v-23c0-212-128-338-388-338a780 780 0 00-472 154L4446 17400a1100 1100 0 01 659-192c450-2 709 211 709 659zm-365 425v-181h-375c-248 0-315 94-315 207 0 131 111 215 300 215a393 393 0 00 390-241zm717-292c0-466 350-795 842-795 300 0 544 125 664 360l-280 164a441 441 0 00-392-215 487 487 0 00 0 974 442 442 0 00 388-215l280 163a709 709 0 01-660 364c-492 0-842-333-842-800zm2775 700a575 575 0 01-349 100c-341 0-536-180-536-524v-748H7800v-291h256v-355h364v355h417v291H8420v740c0 151 76 233 215 233a331 331 0 00 200-64zm2951-1960v2039h-312L10456 17400v1381h-375V16740h311l1124 1381V16740zm1814 1127v912h-343v-189c-88 133-256 209-490 209-355 0-580-200-580-466s175-463 647-463h400v-23c0-212-128-338-387-338a778 778 0 00-472 154l-142-263a1100 1100 0 01 659-192c450-2 708 211 708 659zm-363 425v-181h-376c-247 0-314 94-314 207 0 131 110 215 300 215a394 394 0 00 390-241zm1764 408a575 575 0 01-349 100c-341 0-536-180-536-524v-748h-256v-291h256v-355h364v355H15000v291h-417v740c0 151 76 233 216 233a333 333 0 00 200-64zm251-1951a222 222 0 01 233-219 216 216 0 01 232 210 233 233 0 01-465 9zm49 475h364v1555h-364zm2299 0-667 1555h-376L16000 17224h379l483 1153 500-1153zm1639 894h-1220c43 227 233 373 500 373a557 557 0 00 422-169l195 224a788 788 0 01-626 253c-521 0-859-334-859-800a774 774 0 01 800-795c454 0 786 317 786 800a1053 1053 0 01 2 114zm-1223-242h883a424 424 0 00-440-379 431 431 0 00-443 379"/></svg>
