<svg xmlns="http://www.w3.org/2000/svg" viewBox="0 0 200 200" fill="#54c1de" xmlns:v="https://vecta.io/nano"><path d="M150 56.75h0l-5-1.57.78-3.41c3.78-18.35 1.3-33.14-7.14-38-8.09-4.67-21.33.19-34.7 11.83a108.46 108.46 0 0 0-3.87 3.55c-.84-.81-1.7-1.6-2.57-2.38C83.49 14.32 69.44 9.07 61 14c-8.09 4.68-10.48 18.58-7.08 36 .34 1.73.73 3.44 1.15 5.15q-3 .84-5.75 1.8c-16.43 5.73-26.92 14.71-26.92 24 0 9.62 11.26 19.27 28.38 25.12 1.38.47 2.78.9 4.2 1.31q-.69 2.76-1.22 5.54c-3.25 17.1-.71 30.67 7.36 35.33 8.33 4.8 22.31-.14 35.93-12 1.08-.94 2.16-1.94 3.23-3a108.21 108.21 0 0 0 4.2 3.83c13.18 11.35 26.21 15.93 34.27 11.26 8.33-4.81 11-19.39 7.52-37.14-.27-1.36-.59-2.74-.93-4.15 1-.29 2-.59 2.88-.9C166 100.2 177.6 90.67 177.6 80.92c0-9.36-10.83-18.4-27.6-24.17zM108.29 30.6c11.46-10 22.17-13.91 27-11.1h0c5.2 3 7.22 15.09 4 30.94a96.19 96.19 0 0 1-.7 3.08 160.12 160.12 0 0 0-20.75-3.27 157.35 157.35 0 0 0-13.11-16.38 91.89 91.89 0 0 1 3.56-3.27zM68.23 88.86q2.11 4.06 4.4 8 2.29 3.94 4.88 8a142.92 142.92 0 0 1-14.31-2.3c1.37-4.42 3.06-9.02 5.03-13.7zm0-15.59c-1.92-4.58-3.58-9.08-4.93-13.43 4.43-1 9.15-1.8 14.07-2.41q-2.48 3.84-4.76 7.82a200.67 200.67 0 0 0-4.39 8.02zm3.53 7.8q3.06-6.39 6.6-12.52h0q3.54-6.12 7.53-12c4.6-.33 9.33-.55 14.11-.55s9.54.18 14.15.54q3.95 5.84 7.48 11.93 3.53 6.09 6.7 12.53-3.12 6.39-6.67 12.56h0q-3.52 6.14-7.45 12c-4.6.33-9.36.49-14.21.49s-9.53-.14-14-.44q-4-5.86-7.58-12c-2.42-4.12-4.63-8.3-6.67-12.54zm55.64 15.77q2.34-4.07 4.5-8.22h0a138.15 138.15 0 0 1 5.21 13.65 139 139 0 0 1-14.47 2.47q2.46-3.9 4.76-7.9zm4.44-23.57q-2.16-4.08-4.47-8.07h0c-1.52-2.62-3.08-5.21-4.72-7.76 4.95.63 9.7 1.46 14.15 2.48a141.1 141.1 0 0 1-4.96 13.35zm-31.76-34.66a140.72 140.72 0 0 1 9.13 11q-9.18-.42-18.35 0c3.03-3.96 6.14-7.61 9.22-11zM64.33 19.69c5.19-3 16.67 1.28 28.77 12l2.33 2.15a159.75 159.75 0 0 0-13.22 16.39 163.18 163.18 0 0 0-20.71 3.22c-.39-1.58-.75-3.18-1.07-4.78h0c-2.91-14.91-.98-26.15 3.9-28.98zm-7.56 81.25q-1.94-.54-3.84-1.2c-7.56-2.59-13.81-5.95-18.1-9.61C31 86.83 29 83.56 29 80.9c0-5.65 8.46-12.9 22.51-17.76 1.77-.61 3.55-1.18 5.34-1.68a159.76 159.76 0 0 0 7.56 19.6 163.26 163.26 0 0 0-7.64 19.88zm35.92 30.22c-6 5.27-12 9-17.37 10.88h0c-4.78 1.69-8.58 1.73-10.88.41-4.9-2.82-6.93-13.73-4.16-28.35.33-1.73.71-3.44 1.14-5.15a155.11 155.11 0 0 0 20.91 3 161 161 0 0 0 13.32 16.46c-.97.96-1.95 1.88-2.96 2.75zm7.57-7.49c-3.14-3.39-6.27-7.13-9.34-11.17 3 .12 6 .17 9.08.17s6.29-.07 9.37-.21a138.75 138.75 0 0 1-9.11 11.21zm40.26 9.22c-.92 5-2.79 8.31-5.08 9.64-4.89 2.83-15.35-.85-26.63-10.56q-1.94-1.66-3.9-3.56a156 156 0 0 0 13-16.52 154.91 154.91 0 0 0 21-3.24c.31 1.28.59 2.53.83 3.76h0c1.59 7.85 1.81 14.94.78 20.48zm5.63-33.11h0l-2.61.82a155.16 155.16 0 0 0-7.85-19.66 155.86 155.86 0 0 0 7.55-19.38q2.38.69 4.61 1.46C162.22 68 171 75.27 171 80.9c0 6-9.49 13.8-24.85 18.88zM100 94.77a13.86 13.86 0 1 0-13.85-13.86A13.86 13.86 0 0 0 100 94.77zm-80.16 93.02l-4.16-6a7 7 0 0 1-.79 0h-4.61v5.94H6.5V167.4h8.39c5.36 0 8.68 2.74 8.68 7.25a6.53 6.53 0 0 1-4.34 6.44l4.69 6.69h-4.08zm-5.13-17.18h-4.43v8.12h4.43c3.32 0 5-1.51 5-4.08s-1.71-4.04-5-4.04zM42 181.18H29.8c.44 2.27 2.33 3.73 5 3.73a5.6 5.6 0 0 0 4.22-1.69l1.98 2.24a7.88 7.88 0 0 1-6.26 2.54c-5.21 0-8.59-3.34-8.59-8a7.74 7.74 0 0 1 8-7.95c4.54 0 7.86 3.17 7.86 8a10.53 10.53 0 0 1-.01 1.13zm-12.23-2.42h8.83a4.23 4.23 0 0 0-4.4-3.76 4.31 4.31 0 0 0-4.43 3.76zm28.37-.09v9.12H54.7v-1.89c-.87 1.33-2.56 2.09-4.9 2.09-3.55 0-5.79-2-5.79-4.66s1.74-4.63 6.46-4.63h4v-.23c0-2.12-1.28-3.38-3.88-3.38a7.8 7.8 0 0 0-4.72 1.54L44.46 174a11 11 0 0 1 6.59-1.92c4.5-.02 7.09 2.11 7.09 6.59zm-3.65 4.25v-1.81h-3.75c-2.48 0-3.15.94-3.15 2.07 0 1.31 1.11 2.15 3 2.15a3.93 3.93 0 0 0 3.9-2.41zm7.17-2.92c0-4.66 3.5-7.95 8.42-7.95 3 0 5.44 1.25 6.64 3.6l-2.8 1.64a4.41 4.41 0 0 0-3.92-2.15 4.87 4.87 0 0 0 0 9.74 4.42 4.42 0 0 0 3.88-2.15l2.8 1.63a7.09 7.09 0 0 1-6.6 3.64c-4.92 0-8.42-3.33-8.42-8zm27.75 7a5.75 5.75 0 0 1-3.49 1c-3.41 0-5.36-1.8-5.36-5.24v-7.48H78v-2.91h2.56v-3.55h3.64v3.55h4.17v2.91H84.2v7.4c0 1.51.76 2.33 2.15 2.33a3.31 3.31 0 0 0 2-.64zm29.51-19.6v20.39h-3.12L104.56 174v13.81h-3.75V167.4h3.11l11.24 13.81V167.4zm18.14 11.27v9.12h-3.43v-1.89c-.88 1.33-2.56 2.09-4.9 2.09-3.55 0-5.8-2-5.8-4.66s1.75-4.63 6.47-4.63h4v-.23c0-2.12-1.28-3.38-3.87-3.38a7.78 7.78 0 0 0-4.72 1.54l-1.42-2.63a11 11 0 0 1 6.59-1.92c4.5-.02 7.08 2.11 7.08 6.59zm-3.63 4.25v-1.81h-3.76c-2.47 0-3.14.94-3.14 2.07 0 1.31 1.1 2.15 3 2.15a3.94 3.94 0 0 0 3.9-2.41zm17.64 4.08a5.75 5.75 0 0 1-3.49 1c-3.41 0-5.36-1.8-5.36-5.24v-7.48h-2.56v-2.91h2.56v-3.55h3.64v3.55H150v2.91h-4.17v7.4c0 1.51.76 2.33 2.16 2.33a3.33 3.33 0 0 0 2-.64zm2.51-19.51a2.22 2.22 0 0 1 2.33-2.19 2.16 2.16 0 0 1 2.32 2.1 2.33 2.33 0 0 1-4.65.09zm.49 4.75h3.64v15.55h-3.64zm22.99 0l-6.67 15.55h-3.76L160 172.24h3.79l4.83 11.53 5-11.53zm16.39 8.94h-12.2c.43 2.27 2.33 3.73 5 3.73a5.57 5.57 0 0 0 4.22-1.69l1.95 2.24a7.88 7.88 0 0 1-6.26 2.53c-5.21 0-8.59-3.34-8.59-8a7.74 7.74 0 0 1 8-7.95c4.54 0 7.86 3.17 7.86 8a10.53 10.53 0 0 1 .02 1.14zm-12.23-2.42h8.83a4.24 4.24 0 0 0-4.4-3.79 4.31 4.31 0 0 0-4.43 3.79z"/></svg>