<svg xmlns="http://www.w3.org/2000/svg" preserveAspectRatio="xMidYMid" viewBox="0 0 256000 244000"><path d="M177381 169733c9447-978 16614-9122 16288-18896-325-9773-8470-17592-18243-17592h-650c-10101 326-17920 8796-17593 18895 326 4887 2280 9122 5212 12054-11076 21828-28016 37791-53426 51148-17270 9122-35190 12380-53108 10100-14660-1955-26062-8470-33230-19222-10425-15963-11402-33230-2606-50496 6190-12380 15961-21502 22151-26063-1303-4235-3258-11402-4235-16614C-9286 147254-4400 193515 9936 215342c10750 16290 32576 26389 56683 26389 6515 0 13030-652 19546-2280 41699-8145 73299-32905 91216-69718zm57336-40397c-24760-28995-61245-44958-102944-44958h-5212c-2930-5864-9120-9774-15960-9774h-650C99850 74930 92030 83400 92359 93500c325 9773 8470 17592 18242 17592h651c7168-326 13358-4887 15964-11077h5864c24759 0 48214 7167 69390 21176 16288 10751 28016 24760 34530 41700 5540 13683 5213 27040-650 38443-9121 17266-24433 26714-44631 26714-13030 0-25410-3910-31926-6842-3589 3258-10100 8470-14660 11729 14003 6515 28340 10099 42020 10099 31273 0 54403-17267 63200-34533 9446-18890 8794-51470-15638-79160zM69225 175270c326 9774 8470 17592 18243 17592h652c10099-325 17917-8796 17590-18895-324-9774-8470-17592-18242-17592h-651c-652 0-1630 0-2280 325-13357-22153-18895-46260-16940-72323 1302-19547 7818-36488 19220-50497 9447-12054 27690-17918 40070-18243 34531-652 49190 42351 50168 59618 4235 977 11402 3258 16289 4887C189434 27366 156857 0 125584 0c-29320 0-56359 21176-67110 52451-14985 41700-5212 81771 13031 113372-1628 2280-2606 5864-2280 9448" fill="#764ABC"/></svg>
