<svg xmlns="http://www.w3.org/2000/svg" width="2376" height="2500" viewBox="121 84 2628 2722"><linearGradient id="a" x1="534.96" x2="1779.32" y1="2477.01" y2="1153.23" gradientUnits="userSpaceOnUse"><stop offset="0" stop-color="#e01d84"/><stop offset=".401" stop-color="#df1d85"/><stop offset=".77" stop-color="#932c87"/><stop offset="1" stop-color="#5d2f88"/></linearGradient><radialGradient id="b" cx="1904.56" cy="802" r="1215.82" gradientTransform="matrix(1 .00239-.002.8362 1.6 126.85)" gradientUnits="userSpaceOnUse"><stop offset="0" stop-color="#e01d84"/><stop offset=".139" stop-color="#de1e85"/><stop offset=".285" stop-color="#d62085"/><stop offset=".434" stop-color="#c92386"/><stop offset=".586" stop-color="#b72786"/><stop offset=".739" stop-color="#9d2b87"/><stop offset=".891" stop-color="#7c2e88"/><stop offset="1" stop-color="#5d2f88"/></radialGradient><linearGradient id="c" x1="832.12" x2="1373.71" y1="623.36" y2="623.36" gradientUnits="userSpaceOnUse"><stop offset="0" stop-color="#e01d84"/><stop offset=".238" stop-color="#da1e85"/><stop offset=".658" stop-color="#c72085"/><stop offset=".999" stop-color="#b52284"/></linearGradient><path d="M296 1753c-52-162-67-333-37-509 13-73 33-143 55-214 0 0 138-453 605-660 0 0 161-85 403-91 0 0-33-32-54-46-114-76-284-101-387 6-31 32-57 67-86 99-33 36-73 66-119 83-40 15-80 12-121 19-42 7-85 22-119 49-37 30-52 70-56 116-4 36-3 73-5 109C370 820 336 850 260 909c-32 24-59 56-79 90-60 106 36 216 41 323 1 22-1 44-9 65-8 23-24 38-37 57-18 25-30 55-25 86s21 60 36 87c29 48 65 91 103 132 2 0 4 2 6 4" fill="#e32286"/><path d="M2204 2137c230-100 328-273 328-273 215-293 142-602 142-602-137 298-262 380-262 380 337-513 2-823 2-823 137 292-45 648-45 648-153 322-370 437-370 437 242 45 420-118 420-118-347 375-723 357-723 357 158 177 395 162 395 162-310 73-601-30-840-229-45-37-88-77-128-120 0 0-36-38-43-48l-1-1c-5 185 188 357 188 357-242-100-353-317-353-317s-163-278-45-595 475-385 475-385c295 143 545 188 545 188 527 88 497-170 497-170 5-222-330-458-330-458C1459 84 919 370 919 370c-467 207-605 660-605 660-22 71-42 141-55 214-51 297 26 578 193 828 260 388 682 522 682 522 625 212 1052-100 1052-100 393-270 472-582 472-582-317 248-454 225-454 225zM1716 678c30 0 54 24 54 54s-24 54-54 54-54-24-54-54 24-54 54-54" fill="url(#a)"/><path d="M2385 984c5-222-330-458-330-458C1458 84 918 370 918 370c-467 207-605 660-605 660-27 77-51 195-51 195-29 148-16 285-16 285 12 131 41 219 41 219 30 94 44 123 44 123-1-3-6-25-6-25s-42-202-3-396c0 0 34-202 172-358 0 0 224-319 641-194 0 0 90 32 121 48 31 15 85 38 85 38 295 143 545 188 545 188 529 89 499-169 499-169zm-669-197c-30 0-54-24-54-54s24-54 54-54 54 24 54 54-24 54-54 54" fill="url(#b)"/><path d="m1374 582-341-106c-2 0-12-5-30 0 0 0-201 51-166 161 0 0 21 69 78 136l375-18" fill="url(#c)"/></svg>
