<svg xmlns="http://www.w3.org/2000/svg" preserveAspectRatio="xMidYMid" viewBox="0 0 5120 3840"><path d="M4406 2206c-179 1.01-334 44-464 108.01-48-95-96-178-103.99-240-9-72-20-116-9-202 11-85.96 61-207.96 61-217.96-1.02-9-11.02-53-114-54s-192 20-202 47-30 89-43 153c-18 94-206 427-313 602-35-68-65-128-71.02-176-8.99-72-20-116-8.99-202 11-86 61-208 61-218-1-9-11-53-113.99-54-103-1-192 20-202 47s-21 91-43 153c-21 62-271 618-336 763-32.96 74-61.95 133-82.96 173-21 40-1 3-3 7-18 34-28 53-28 53v1.02c-13.99 25-28.99 48.99-36 48.99-5 0-15-67 2-159 37-193 127-494 126-505 0-5 17-58-58-85-73-27-99 18-105 18-6 0-11 16-11 16s81-338.98-155-338.98c-148 0-352 161-453 308-64 35-200 109-344 188-55 30-112 62-166 91l-11-12.03c-286-305-815-521-793-931 8-149 60-542 1016.01-1018 783-390 1410-283 1519-45 155 340-335 972-1149 1063-310 35-473-85-514-130-42.98-47-48.98-49-64.98-40-26 14-10 56 0 81 24 63 124 175 294 231 149 49 513 76 953-94 493.01-191 878.01-721 765.01-1164-115-451-863-599-1570-348-421 150-877 384-1205 691C40 1179-22 1497 4 1629c91 471 740 778 1000 1005-13 6.99-25 13.99-36 20-130 63.99-625 323-749 596.99-140 310 22 533.01 130 563.01 334 93 676-74 861-349 183.99-275 162-632 77-795l-3.01-6 102-60c66.01-39 131.01-75 188-106.01-31.99 87-55 190-66.99 340-14 176.01 58 404 153 494 42 38.99 92 40 123 40 110 0 160-91.01 215-200 68-133 128-287 128-287s-75 417 130 417c75 0 150-97 184-147v1s2-3.05 6-10.05a361.3 361.3 0 00 12-19v-2c30-52 97-171 197-368 128.99-254 253-572 253-572s12 78 49 206c21.99 76.01 69.99 159 106.99 240-30 42-48 66.01-48 66.01l1 1c-23.99 32-51 66-78.99 100-102 122-224 261-240 301-19 47-15 82 22 110 27 20 75 24 126 20 92-6 156-29 188-43 50-18 107-45 162-85 100-74 161-179 155-319-3-77-28-153-59-225 9-13 18.01-26 27-40 158-231 280-485 280-485s12 78 49 206c18.99 65 57 136.01 91 206.01-148 121-241 261-273 353-59 170-13 247 74 265 38.99 8 95-10 136.99-28 52-17 115-46 173.01-89 100-74 196-177 191-316-3-63.99-20-126.99-43-186.99 126-52 288.99-82 496-57 445 52.02 533 330.02 516.01 446.02-17 116.01-110 180-141 200-30.96 19-40.96 26.01-37.96 40 4 21.01 18 20 45 16.01 37-6 234-95 242-308.99 12-275.04-249-575.04-712-572.05zM974 3363c-147 161-354 222-442 170-95-55-58.01-292 123-463 110-104 253-200 347-259 21-13 53-31.99 91-55 6-3.99 10-6 10-6 7-4 15-9 23-14 67 244 3 458-152 627zm1075-731c-51 125-159 446-224 428-56.01-15-90-258-11.01-498 40-121 125-265 175-321 81-90 169-120 191-83 26 48-99 396-131 474zm887 424c-22 11.01-42 19-51 13.01-7-4 8.99-19 8.99-19s111-119 155-174c25-31.99 55-68.99 87-111v12c0 144.04-138 240.04-200 279.04zm683.99-156c-16-12-14-49 40-165 21-46 69-123 152-196 10 30 16 58.99 15 86-1 180-129 247-207 275" fill="#CF649A"/></svg>
