<svg xmlns="http://www.w3.org/2000/svg" width="256" height="256" preserveAspectRatio="xMidYMid" version="1.1" viewBox="0 0 256000 256000"><path d="M0 128000v128000h256000V0H0" fill="#007ACC"/><path d="m56611 128850-81 10483h33320v94680h23570l-1-47340v-47340h33320v-10280c0-5690-122-10444-284-10566-122-162-20400-244-44983-203l-44740 122-121 10443zm149956-10742c6500 1626 11459 4510 16010 9224 2357 2520 5850 7112 6136 8210 80 324-11053 7800-17798 11986-244 163-1220-894-2317-2520-3291-4794-6745-6867-12028-7232-7760-530-12760 3535-12718 10320 0 1992 284 3170 1097 4796 1707 3535 4876 5648 14832 9955 18326 7884 26168 13085 31045 20480 5445 8250 6664 21415 2966 31208-4063 10646-14140 17880-28323 20277-4388 772-14790 650-19504-203-10280-1830-20033-6908-26047-13572-2357-2601-6950-9387-6664-9875 122-162 1178-812 2356-1503a2665800 2665800 0 00 9510-5491l7354-4266 1544 2276c2154 3290 6867 7802 9712 9305 8167 4308 19383 3698 24910-1260 2356-2153 3331-4388 3331-7680 4-2966-362-4266-1906-6500-1990-2845-6054-5243-17595-10240-13206-5690-18895-9225-24096-14833-3007-3250-5852-8452-7030-12800-975-3616-1220-12678-447-16335 2723-12760 12353-21658 26250-24300 4510-853 14994-528 19424 570" fill="#FFF"/></svg>
